<svg width="32" height="32" viewBox="0 0 32 32" fill="none" xmlns="http://www.w3.org/2000/svg">
<rect width="32" height="32" rx="16" fill="#6562F8"/>
<path d="M28 17.5313V14.4769L25.3 13.6134C25.0757 12.7368 24.7276 11.8965 24.2664 11.118L25.5673 8.59808L23.4089 6.43758L20.8884 7.73682C20.11 7.27491 19.27 6.92597 18.3935 6.70048L17.5316 4H14.4771L13.6136 6.69939C12.7403 6.92332 11.903 7.26984 11.1269 7.72864L8.58182 6.43431L6.436 8.60626L7.74182 11.1044C7.2776 11.885 6.92715 12.7278 6.70109 13.6074L4 14.4692V17.5237L6.69945 18.3866C6.9249 19.2635 7.27384 20.1039 7.73582 20.8825L6.43273 23.4025L8.59218 25.563L11.1127 24.2637C11.891 24.7257 12.7311 25.0746 13.6076 25.3001L14.4695 28H17.524L18.3869 25.3001C19.2638 25.0757 20.1042 24.7277 20.8829 24.2664L23.4029 25.5673L25.5635 23.4079L24.2642 20.8874C24.7261 20.1091 25.0751 19.2691 25.3005 18.3926L28 17.5313ZM10.2951 10.2889C11.3784 9.20562 12.7477 8.45292 14.2429 8.11879C15.7381 7.78467 17.2975 7.88291 18.7389 8.40205C20.1803 8.92118 21.4443 9.83977 22.3831 11.0505C23.3219 12.2612 23.8968 13.7141 24.0405 15.2394H20.1384C19.9673 14.2596 19.4561 13.3715 18.6949 12.7314C17.9336 12.0912 16.9709 11.7401 15.9763 11.7397C14.9816 11.7393 14.0187 12.0897 13.2569 12.7292C12.4951 13.3688 11.9833 14.2564 11.8115 15.2361H7.96382C8.13682 13.3677 8.96035 11.6193 10.2907 10.296L10.2951 10.2889ZM18.6727 15.9741C18.6724 16.5081 18.5137 17.03 18.2168 17.4738C17.9198 17.9176 17.4979 18.2634 17.0045 18.4675C16.511 18.6716 15.9681 18.7247 15.4444 18.6202C14.9207 18.5157 14.4398 18.2583 14.0624 17.8804C13.685 17.5026 13.4282 17.0214 13.3243 16.4976C13.2204 15.9738 13.2742 15.4309 13.4789 14.9377C13.6835 14.4445 14.0299 14.023 14.474 13.7266C14.9182 13.4302 15.4404 13.2722 15.9744 13.2725C16.6902 13.2738 17.3763 13.559 17.8821 14.0654C18.388 14.5719 18.6723 15.2583 18.6727 15.9741V15.9741ZM11.8207 16.7633C12.0043 17.73 12.5193 18.6023 13.2771 19.23C14.0349 19.8576 14.9879 20.2012 15.9719 20.2015C16.9558 20.2018 17.9091 19.8589 18.6673 19.2317C19.4254 18.6046 19.9411 17.7326 20.1253 16.7661H24.0373C23.8481 18.7668 22.9194 20.625 21.4328 21.9773C19.9463 23.3297 18.0087 24.079 15.999 24.0786C13.9893 24.0783 12.0521 23.3284 10.5659 21.9755C9.07984 20.6226 8.1518 18.7641 7.96327 16.7633H11.8207Z" fill="#F4F4F5"/>
</svg>
