<svg viewBox="0 0 20 20" fill="currentColor" xmlns="http://www.w3.org/2000/svg">
<path d="M17.43 10.98C17.47 10.66 17.5 10.34 17.5 10C17.5 9.66005 17.47 9.34005 17.43 9.02005L19.54 7.37005C19.73 7.22005 19.78 6.95005 19.66 6.73005L17.66 3.27005C17.6011 3.16687 17.5073 3.08807 17.3955 3.04775C17.2837 3.00744 17.1613 3.00825 17.05 3.05005L14.56 4.05005C14.04 3.65005 13.48 3.32005 12.87 3.07005L12.49 0.420047C12.4735 0.302388 12.4146 0.194807 12.3244 0.117483C12.2342 0.0401581 12.1188 -0.00159773 12 4.67889e-05H8.00002C7.75002 4.67889e-05 7.54002 0.180047 7.51002 0.420047L7.13002 3.07005C6.52002 3.32005 5.96002 3.66005 5.44002 4.05005L2.95002 3.05005C2.89204 3.03038 2.83125 3.02025 2.77002 3.02005C2.60002 3.02005 2.43002 3.11005 2.34002 3.27005L0.340022 6.73005C0.210022 6.95005 0.270023 7.22005 0.460023 7.37005L2.57002 9.02005C2.53002 9.34005 2.50002 9.67005 2.50002 10C2.50002 10.33 2.53002 10.66 2.57002 10.98L0.460023 12.63C0.270023 12.78 0.220022 13.05 0.340022 13.27L2.34002 16.73C2.39897 16.8332 2.49274 16.912 2.60452 16.9523C2.7163 16.9927 2.83879 16.9918 2.95002 16.95L5.44002 15.95C5.96002 16.35 6.52002 16.68 7.13002 16.93L7.51002 19.58C7.54002 19.82 7.75002 20 8.00002 20H12C12.25 20 12.46 19.82 12.49 19.58L12.87 16.93C13.48 16.68 14.04 16.34 14.56 15.95L17.05 16.95C17.11 16.97 17.17 16.98 17.23 16.98C17.4 16.98 17.57 16.89 17.66 16.73L19.66 13.27C19.78 13.05 19.73 12.78 19.54 12.63L17.43 10.98ZM15.45 9.27005C15.49 9.58005 15.5 9.79005 15.5 10C15.5 10.21 15.48 10.43 15.45 10.73L15.31 11.86L16.2 12.56L17.28 13.4L16.58 14.61L15.31 14.1L14.27 13.68L13.37 14.36C12.94 14.68 12.53 14.92 12.12 15.09L11.06 15.52L10.9 16.65L10.7 18H9.30002L9.11002 16.65L8.95002 15.52L7.89002 15.09C7.46002 14.91 7.06002 14.68 6.66002 14.38L5.75002 13.68L4.69002 14.11L3.42002 14.62L2.72002 13.41L3.80002 12.57L4.69002 11.87L4.55002 10.74C4.52002 10.43 4.50002 10.2 4.50002 10C4.50002 9.80005 4.52002 9.57005 4.55002 9.27005L4.69002 8.14005L3.80002 7.44005L2.72002 6.60005L3.42002 5.39005L4.69002 5.90005L5.73002 6.32005L6.63002 5.64005C7.06002 5.32005 7.47002 5.08005 7.88002 4.91005L8.94002 4.48005L9.10002 3.35005L9.30002 2.00005H10.69L10.88 3.35005L11.04 4.48005L12.1 4.91005C12.53 5.09005 12.93 5.32005 13.33 5.62005L14.24 6.32005L15.3 5.89005L16.57 5.38005L17.27 6.59005L16.2 7.44005L15.31 8.14005L15.45 9.27005ZM10 6.00005C7.79002 6.00005 6.00002 7.79005 6.00002 10C6.00002 12.21 7.79002 14 10 14C12.21 14 14 12.21 14 10C14 7.79005 12.21 6.00005 10 6.00005ZM10 12C8.90002 12 8.00002 11.1 8.00002 10C8.00002 8.90005 8.90002 8.00005 10 8.00005C11.1 8.00005 12 8.90005 12 10C12 11.1 11.1 12 10 12Z" fill="currentColor"/>
</svg>
