<svg viewBox="0 0 18 18" fill="currentColor" xmlns="http://www.w3.org/2000/svg">
<path fill-rule="evenodd" clip-rule="evenodd" d="M0 9C0 4.02944 4.02944 0 9 0C13.9706 0 18 4.02944 18 9C18 13.9706 13.9706 18 9 18C4.02944 18 0 13.9706 0 9ZM2.07089 10C2.55612 13.3923 5.47353 16 9 16C12.5265 16 15.4439 13.3923 15.9291 10H11.8293C11.4174 11.1652 10.3062 12 8.99997 12C7.69375 12 6.58251 11.1652 6.17068 10H2.07089ZM15.9291 8C15.4439 4.60771 12.5265 2 9 2C5.47353 2 2.55612 4.60771 2.07089 8H6.17068C6.58251 6.83481 7.69375 6 8.99997 6C10.3062 6 11.4174 6.83481 11.8293 8H15.9291ZM8.99997 10C9.55225 10 9.99997 9.55228 9.99997 9C9.99997 8.44772 9.55225 8 8.99997 8C8.44769 8 7.99997 8.44772 7.99997 9C7.99997 9.55228 8.44769 10 8.99997 10Z" fill="currentColor"/>
</svg>
