<svg width="24" height="24" viewBox="0 0 24 24" fill="currentColor" xmlns="http://www.w3.org/2000/svg">
<g clip-path="url(#clip0_211_32)">
<path d="M22.24 14.23C21.89 14.32 21.56 14.48 21.29 14.72C21.02 14.96 20.8 15.25 20.66 15.59C20.52 15.92 20.46 16.29 20.49 16.65C20.52 17.01 20.63 17.36 20.82 17.67C22.07 19.73 19.72 22.08 17.66 20.83C17.35 20.64 17 20.53 16.64 20.5C16.28 20.47 15.92 20.53 15.58 20.67C15.25 20.81 14.95 21.02 14.71 21.3C14.47 21.57 14.31 21.9 14.22 22.25C13.65 24.59 10.32 24.59 9.74998 22.25C9.65998 21.9 9.49998 21.57 9.25998 21.3C9.01998 21.03 8.72998 20.81 8.38998 20.67C8.04998 20.53 7.68998 20.47 7.32998 20.5C6.96998 20.53 6.61998 20.64 6.30998 20.83C4.24998 22.08 1.89998 19.73 3.14998 17.67C3.95998 16.34 3.23998 14.61 1.72998 14.24C-0.610024 13.67 -0.610024 10.34 1.72998 9.77001C2.07998 9.68001 2.40998 9.52 2.67998 9.28C2.94998 9.04 3.16998 8.75 3.30998 8.41C3.44998 8.08 3.50998 7.71001 3.47998 7.35001C3.44998 6.99001 3.33998 6.64001 3.14998 6.33001C1.89998 4.27001 4.24998 1.92001 6.30998 3.17001C6.61998 3.36001 6.96998 3.47001 7.32998 3.50001C7.68998 3.53001 8.04998 3.47001 8.38998 3.33001C8.71998 3.19001 9.01998 2.98001 9.25998 2.70001C9.49998 2.43001 9.65998 2.10001 9.74998 1.75001C10.32 -0.589994 13.65 -0.589994 14.22 1.75001C14.31 2.10001 14.47 2.43001 14.71 2.70001C14.95 2.97001 15.24 3.19001 15.58 3.33001C15.91 3.47001 16.28 3.53001 16.64 3.50001C17 3.47001 17.35 3.36001 17.66 3.17001C19.72 1.92001 22.07 4.27001 20.82 6.33001C20.63 6.64001 20.52 6.99001 20.49 7.35001C20.46 7.71001 20.52 8.07 20.66 8.41C20.8 8.74 21.01 9.04 21.29 9.28C21.56 9.52 21.89 9.68001 22.24 9.77001C24.58 10.34 24.58 13.67 22.24 14.24V14.23ZM12 20C16.17 20 19.58 16.82 19.96 12.75H15.92C15.57 14.6 13.95 16 12 16C10.05 16 8.42998 14.6 8.07998 12.75L4.03998 12.75C4.41998 16.82 7.83998 20 12 20ZM14.5 12C14.5 10.62 13.38 9.5 12 9.5C10.62 9.5 9.49998 10.62 9.49998 12C9.49998 13.38 10.62 14.5 12 14.5C13.38 14.5 14.5 13.38 14.5 12ZM12 4.00001C7.82998 4.00001 4.41998 7.18 4.03998 11.25L8.07998 11.25C8.42998 9.4 10.05 8.00001 12 8.00001C13.95 8.00001 15.57 9.4 15.92 11.25H19.96C19.58 7.18 16.16 4.00001 12 4.00001Z" fill="currentColor"/>
</g>
<defs>
<clipPath id="clip0_211_32">
<rect width="24" height="24" fill="currentColor" transform="matrix(1 0 0 -1 0 24)"/>
</clipPath>
</defs>
</svg>
