<svg width="20" viewBox="0 0 20 20" fill="currentColor" xmlns="http://www.w3.org/2000/svg">
<path d="M16.32 2.25999C14.8034 1.0148 12.9525 0.245894 11 0.0499878V2.06999C12.46 2.24999 13.79 2.82999 14.9 3.68999L16.32 2.25999ZM17.93 8.99999H19.95C19.75 6.98999 18.95 5.15999 17.74 3.67999L16.31 5.09999C17.1921 6.22994 17.7519 7.5776 17.93 8.99999ZM16.31 14.9L17.74 16.33C18.9835 14.8124 19.7522 12.962 19.95 11.01H17.93C17.75 12.4288 17.1903 13.7728 16.31 14.9ZM11 17.93V19.95C13.01 19.75 14.84 18.95 16.32 17.74L14.89 16.31C13.79 17.17 12.46 17.75 11 17.93ZM13.59 8.58999L11 11.17V4.99999H9V11.17L6.41 8.57999L5 9.99999L10 15L15 9.99999L13.59 8.58999ZM9 17.93V19.95C3.95 19.45 0 15.19 0 9.99999C0 4.80999 3.95 0.549988 9 0.0499878V2.06999C5.05 2.55999 2 5.91999 2 9.99999C2 14.08 5.05 17.44 9 17.93Z" fill="currentColor"/>
</svg>
