<svg xmlns="http://www.w3.org/2000/svg" width="18" height="18" viewBox="0 0 18 18" fill="currentColor">
  <path d="M14 9C14 10.2429 13.5607 11.3036 12.6821 12.1821C11.8036 13.0607 10.7429 13.5 9.5 13.5C8.25714 13.5 7.19643 13.0607 6.31786 12.1821C5.43929 11.3036 5 10.2429 5 9C5 7.75714 5.43929 6.69642 6.31786 5.81786C7.19643 4.93929 8.25714 4.5 9.5 4.5C10.7429 4.5 11.8036 4.93929 12.6821 5.81786C13.5607 6.69642 14 7.75714 14 9ZM12.65 8.99629C12.65 8.12376 12.3425 7.38125 11.7275 6.76875C11.1126 6.15625 10.3688 5.85 9.49629 5.85C8.62376 5.85 7.88125 6.15749 7.26875 6.77246C6.65625 7.38744 6.35 8.13119 6.35 9.00371C6.35 9.87624 6.65749 10.6187 7.27246 11.2312C7.88744 11.8438 8.63119 12.15 9.50371 12.15C10.3762 12.15 11.1188 11.8425 11.7313 11.2275C12.3438 10.6126 12.65 9.86881 12.65 8.99629Z" fill="currentColor"/>
</svg>
