<svg xmlns="http://www.w3.org/2000/svg" width="18" height="18" viewBox="0 0 18 18" fill="none">
<rect width="18" height="18" rx="2" fill="none"/>
<path d="M4.94563 10.3504C4.57328 10.3504 4.25586 10.2178 3.99336 9.95267C3.73086 9.6875 3.59961 9.36875 3.59961 8.99642C3.59961 8.62407 3.73218 8.30664 3.99733 8.04414C4.2625 7.78164 4.58125 7.65039 4.95358 7.65039C5.32593 7.65039 5.64336 7.78297 5.90586 8.04812C6.16836 8.31328 6.29961 8.63203 6.29961 9.00437C6.29961 9.37672 6.16703 9.69414 5.90188 9.95664C5.63672 10.2191 5.31797 10.3504 4.94563 10.3504ZM8.99563 10.3504C8.62328 10.3504 8.30586 10.2178 8.04336 9.95267C7.78086 9.6875 7.64961 9.36875 7.64961 8.99642C7.64961 8.62407 7.78218 8.30664 8.04733 8.04414C8.3125 7.78164 8.63125 7.65039 9.00358 7.65039C9.37593 7.65039 9.69336 7.78297 9.95586 8.04812C10.2184 8.31328 10.3496 8.63203 10.3496 9.00437C10.3496 9.37672 10.217 9.69414 9.95189 9.95664C9.68672 10.2191 9.36797 10.3504 8.99563 10.3504ZM13.0456 10.3504C12.6733 10.3504 12.3559 10.2178 12.0934 9.95267C11.8309 9.6875 11.6996 9.36875 11.6996 8.99642C11.6996 8.62407 11.8322 8.30664 12.0973 8.04414C12.3625 7.78164 12.6812 7.65039 13.0536 7.65039C13.4259 7.65039 13.7434 7.78297 14.0059 8.04812C14.2684 8.31328 14.3996 8.63203 14.3996 9.00437C14.3996 9.37672 14.267 9.69414 14.0019 9.95664C13.7367 10.2191 13.418 10.3504 13.0456 10.3504Z" fill="currentColor"/>
</svg>
