<svg width="48" height="48" viewBox="0 0 48 48" fill="currentColor" xmlns="http://www.w3.org/2000/svg">
<path d="M0 20.9373V27.0463L5.4 28.7732C5.84866 30.5265 6.54474 32.2069 7.46727 33.764L4.86546 38.8038L9.18218 43.1248L14.2233 40.5264C15.7799 41.4502 17.46 42.1481 19.2131 42.599L20.9367 48H27.0458L28.7727 42.6012C30.5194 42.1534 32.1939 41.4603 33.7462 40.5427L38.8364 43.1314L43.128 38.7875L40.5164 33.7912C41.4448 32.2301 42.1457 30.5444 42.5978 28.7852L48 27.0616V20.9526L42.6011 19.2268C42.1502 17.4731 41.4523 15.7923 40.5284 14.235L43.1345 9.19506L38.8156 4.87407L33.7745 7.47256C32.218 6.5486 30.5379 5.85072 28.7847 5.39988L27.0611 0H20.952L19.2262 5.39988C17.4725 5.84853 15.7916 6.54459 14.2342 7.46711L9.19418 4.86535L4.87309 9.18416L7.47163 14.2251C6.54779 15.7818 5.8499 17.4618 5.39891 19.2148L0 20.9373ZM35.4098 35.4221C33.2432 37.5888 30.5047 39.0942 27.5143 39.7624C24.5239 40.4307 21.4051 40.2342 18.5222 39.1959C15.6393 38.1576 13.1114 36.3205 11.2338 33.899C9.35624 31.4775 8.20649 28.5718 7.91891 25.5212H15.7233C16.0654 27.4809 17.0877 29.257 18.6103 30.5373C20.1328 31.8175 22.0581 32.5198 24.0474 32.5206C26.0367 32.5214 27.9626 31.8206 29.4862 30.5415C31.0097 29.2625 32.0334 27.4871 32.3771 25.5278L40.0724 25.5278C39.7264 29.2646 38.0793 32.7614 35.4185 35.4079L35.4098 35.4221ZM18.6545 24.0518C18.6552 22.9838 18.9725 21.94 19.5664 21.0524C20.1603 20.1647 21.0041 19.4731 21.9911 19.065C22.978 18.6569 24.0639 18.5506 25.1112 18.7596C26.1586 18.9686 27.1205 19.4835 27.8752 20.2391C28.63 20.9948 29.1437 21.9572 29.3514 23.0048C29.5591 24.0524 29.4516 25.1381 29.0422 26.1246C28.6329 27.111 27.9403 27.9539 27.0519 28.5467C26.1635 29.1396 25.1193 29.4556 24.0513 29.455C22.6196 29.4524 21.2475 28.8821 20.2358 27.8692C19.2241 26.8562 18.6554 25.4834 18.6545 24.0518ZM32.3585 22.4733C31.9914 20.54 30.9613 18.7953 29.4458 17.5401C27.9302 16.2848 26.0242 15.5976 24.0563 15.597C22.0883 15.5963 20.1819 16.2823 18.6655 17.5365C17.1491 18.7908 16.1178 20.5348 15.7495 22.4679H7.92545C8.30386 18.4664 10.1612 14.75 13.1343 12.0453C16.1075 9.34061 19.9826 7.84208 24.0019 7.84276C28.0213 7.84344 31.8959 9.34328 34.8681 12.049C37.8403 14.7547 39.6964 18.4718 40.0735 22.4733L32.3585 22.4733Z" fill="#F4F4F5"/>
</svg>
