<svg xmlns="http://www.w3.org/2000/svg" width="18" height="18" viewBox="0 0 18 18" fill="currentColor">
  <path d="M11.25 12C11.4625 12 11.6406 11.9281 11.7844 11.7844C11.9281 11.6406 12 11.4625 12 11.25V10.5H12.75C12.9625 10.5 13.1406 10.4281 13.2844 10.2844C13.4281 10.1406 13.5 9.9625 13.5 9.75C13.5 9.5375 13.4281 9.35938 13.2844 9.21563C13.1406 9.07188 12.9625 9 12.75 9H12V8.25C12 8.0375 11.9281 7.85938 11.7844 7.71563C11.6406 7.57188 11.4625 7.5 11.25 7.5C11.0375 7.5 10.8594 7.57188 10.7156 7.71563C10.5719 7.85938 10.5 8.0375 10.5 8.25V9H9.75C9.5375 9 9.35937 9.07188 9.21562 9.21563C9.07187 9.35938 9 9.5375 9 9.75C9 9.9625 9.07187 10.1406 9.21562 10.2844C9.35937 10.4281 9.5375 10.5 9.75 10.5H10.5V11.25C10.5 11.4625 10.5719 11.6406 10.7156 11.7844C10.8594 11.9281 11.0375 12 11.25 12ZM3 15C2.5875 15 2.23437 14.8531 1.94062 14.5594C1.64687 14.2656 1.5 13.9125 1.5 13.5V4.5C1.5 4.0875 1.64687 3.73438 1.94062 3.44063C2.23437 3.14687 2.5875 3 3 3H6.88125C7.08125 3 7.27187 3.0375 7.45312 3.1125C7.63437 3.1875 7.79375 3.29375 7.93125 3.43125L9 4.5H15C15.4125 4.5 15.7656 4.64688 16.0594 4.94063C16.3531 5.23438 16.5 5.5875 16.5 6V13.5C16.5 13.9125 16.3531 14.2656 16.0594 14.5594C15.7656 14.8531 15.4125 15 15 15H3ZM3 4.5V13.5H15V6H8.38125L6.88125 4.5H3Z" fill="currentColor"/>
</svg>
