<svg width="22" height="22" viewBox="0 0 22 22" fill="currentColor" xmlns="http://www.w3.org/2000/svg">
<path d="M21.5 12.3402V9.66745L19.1375 8.91193C18.9412 8.14485 18.6367 7.40962 18.2331 6.72841L19.3714 4.52341L17.4828 2.63293L15.2773 3.7698C14.5963 3.36561 13.8612 3.06029 13.0943 2.86298L12.3402 0.5H9.66745L8.91193 2.86202C8.14774 3.05796 7.41517 3.36118 6.73604 3.76264L4.50909 2.63007L2.6315 4.53057L3.77409 6.71648C3.3679 7.39951 3.06126 8.13701 2.86345 8.90668L0.5 9.66077V12.3335L2.86202 13.0885C3.05928 13.8558 3.36461 14.5912 3.76884 15.2725L2.62864 17.4775L4.51816 19.368L6.72364 18.2312C7.40465 18.6354 8.13969 18.9407 8.90668 19.138L9.66077 21.5005H12.3335L13.0885 19.138C13.8558 18.9417 14.5912 18.6372 15.2725 18.2335L17.4775 19.3718L19.368 17.4823L18.2312 15.2768C18.6353 14.5958 18.9407 13.8608 19.138 13.0938L21.5 12.3402ZM6.0082 6.00295C6.95612 5.05502 8.1542 4.39639 9.4625 4.10403C10.7708 3.81166 12.1353 3.89763 13.3965 4.35188C14.6578 4.80613 15.7638 5.60992 16.5852 6.66933C17.4066 7.72874 17.9097 9.00003 18.0355 10.3347H14.6211C14.4714 9.47733 14.0241 8.70024 13.358 8.14012C12.6919 7.58 11.8496 7.27274 10.9792 7.27239C10.1089 7.27205 9.26637 7.57865 8.59981 8.13825C7.93325 8.69784 7.48539 9.47459 7.33502 10.3318H3.96834C4.11971 8.69692 4.8403 7.16706 6.00439 6.00916L6.0082 6.00295ZM13.3386 10.9776C13.3384 11.4448 13.1995 11.9015 12.9397 12.2899C12.6799 12.6782 12.3107 12.9808 11.8789 13.1593C11.4471 13.3379 10.9721 13.3844 10.5138 13.293C10.0556 13.2015 9.63479 12.9763 9.30458 12.6457C8.97438 12.3151 8.74963 11.894 8.65875 11.4356C8.56787 10.9773 8.61495 10.5023 8.79402 10.0707C8.97309 9.63914 9.27612 9.27035 9.66479 9.01099C10.0535 8.75163 10.5103 8.61335 10.9776 8.61364C11.6039 8.61477 12.2042 8.86429 12.6468 9.30745C13.0895 9.7506 13.3383 10.3512 13.3386 10.9776ZM7.34314 11.6682C7.50374 12.514 7.95442 13.2773 8.61748 13.8265C9.28054 14.3757 10.1144 14.6764 10.9754 14.6766C11.8363 14.6769 12.6704 14.3768 13.3338 13.8281C13.9973 13.2793 14.4484 12.5163 14.6096 11.6706H18.0326C17.8671 13.4212 17.0545 15.0472 15.7537 16.2305C14.453 17.4139 12.7576 18.0695 10.9992 18.0692C9.24068 18.0689 7.54555 17.4127 6.2452 16.2289C4.94486 15.0451 4.13282 13.4189 3.96786 11.6682H7.34314Z" fill="#F4F4F5"/>
</svg>
