<svg width="18" height="18" viewBox="0 0 18 18" fill="currentColor" xmlns="http://www.w3.org/2000/svg">
<path d="M9.6525 11.3025L7.7475 9.42L7.77 9.3975C9.075 7.9425 10.005 6.27 10.5525 4.5H12.75V3H7.5V1.5H6V3H0.75V4.4925H9.1275C8.625 5.94 7.83 7.3125 6.75 8.5125C6.0525 7.74 5.475 6.8925 5.0175 6H3.5175C4.065 7.2225 4.815 8.3775 5.7525 9.42L1.935 13.185L3 14.25L6.75 10.5L9.0825 12.8325L9.6525 11.3025ZM13.875 7.5H12.375L9 16.5H10.5L11.34 14.25H14.9025L15.75 16.5H17.25L13.875 7.5ZM11.91 12.75L13.125 9.5025L14.34 12.75H11.91Z" fill="currentColor"/>
</svg>
