<svg width="18" height="18" viewBox="0 0 18 18" fill="currentColor" xmlns="http://www.w3.org/2000/svg">
<path fill-rule="evenodd" clip-rule="evenodd" d="M12.0304 0.0176231C12.0435 -0.00107005 12.0692 -0.00561298 12.0879 0.00747612L13.366 0.902398C13.3847 0.915486 13.3893 0.941249 13.3762 0.959941L11.5973 3.50041C12.4621 3.7767 13.0513 4.07471 13.0513 4.07471C13.0513 4.07471 11.6112 6.55189 9.16854 6.55189C6.72592 6.55189 4.99022 4.24311 4.99022 4.24311C4.99022 4.24311 5.60566 3.85035 6.51797 3.51348L4.5668 1.1882C4.55214 1.17071 4.55442 1.14465 4.57189 1.12999L5.7671 0.127078C5.78461 0.112409 5.81066 0.114689 5.82532 0.132171L8.29582 3.0764C8.50736 3.05247 8.72286 3.0391 8.94034 3.0391C9.25291 3.0391 9.5651 3.06286 9.86987 3.10318L12.0304 0.0176231ZM12.5137 6.66921C13.1655 6.20367 14.1518 4.9886 14.1518 4.9886C14.1518 4.9886 16.6713 6.98513 16.6713 11.2185C16.6713 15.4518 12.3156 17.9997 12.3156 17.9997C12.3156 17.9997 10.2345 15.898 9.72359 13.2339C9.21273 10.5697 10.4793 7.61143 10.4793 7.61143C10.4793 7.61143 11.8618 7.13475 12.5137 6.66921ZM5.49355 6.66921C4.84172 6.20367 3.85538 4.9886 3.85538 4.9886C3.85538 4.9886 1.33594 6.98513 1.33594 11.2185C1.33594 15.4518 5.69166 17.9997 5.69166 17.9997C5.69166 17.9997 7.77273 15.898 8.28362 13.2339C8.79448 10.5697 7.5279 7.61143 7.5279 7.61143C7.5279 7.61143 6.14542 7.13475 5.49355 6.66921Z" fill="currentColor"/>
</svg>
