<svg width="18" height="18" viewBox="0 0 18 18" fill="currentColor" xmlns="http://www.w3.org/2000/svg">
<g clip-path="url(#clip0_4280_7677)">
<path fill-rule="evenodd" clip-rule="evenodd" d="M8.06398 15.9205C8.40595 15.9729 8.75618 16 9.1128 16C12.9097 16 15.9878 12.922 15.9878 9.12502C15.9878 5.32804 12.9097 2.25 9.1128 2.25C8.85806 2.25 8.60652 2.26386 8.35898 2.29086C10.2425 3.71781 11.4878 6.18968 11.4878 9C11.4878 11.9545 10.1114 14.535 8.06398 15.9205ZM8.98779 18C13.9584 18 17.9878 13.9706 17.9878 9C17.9878 4.02943 13.9584 0 8.98779 0C4.01722 0 -0.012207 4.02943 -0.012207 9C-0.012207 13.9706 4.01722 18 8.98779 18Z" fill="currentColor"/>
</g>
<defs>
<clipPath id="clip0_4280_7677">
<rect width="18" height="18" fill="white"/>
</clipPath>
</defs>
</svg>
