<svg width="18" height="18" viewBox="0 0 18 18" fill="currentColor" xmlns="http://www.w3.org/2000/svg">
<path fill-rule="evenodd" clip-rule="evenodd" d="M9.86842 8.96066C9.99042 8.88627 10.0939 8.73039 10.1774 8.55714C11.2758 9.00608 12.0478 10.067 12.0478 11.3041C12.0478 12.9477 10.6855 14.2801 9.00499 14.2801C8.31515 14.2801 7.67893 14.0555 7.16857 13.6772C7.00115 13.5979 6.86341 13.5217 6.7507 13.4594C6.57587 13.3628 6.46122 13.2994 6.38943 13.3093C6.17959 13.3382 6.24051 13.5313 6.29588 13.7067C6.33347 13.8258 6.36852 13.9368 6.31427 13.9826C6.25753 14.0305 6.07373 13.8553 5.85896 13.6505C5.5666 13.3718 5.21687 13.0383 5.05195 13.1385C4.92156 13.2177 5.04815 13.4325 5.20312 13.6955L5.21462 13.715C5.28008 13.8262 5.35595 13.9394 5.42517 14.0427C5.5659 14.2526 5.67924 14.4218 5.62254 14.4504C5.55398 14.485 5.07635 14.1626 4.67385 13.715C4.51849 13.5423 4.36802 13.3551 4.22817 13.1811V13.181C3.92206 12.8001 3.66704 12.4829 3.52389 12.5204C3.35167 12.5657 3.48195 12.9209 3.67337 13.2627C3.76288 13.4226 3.86817 13.5853 3.95933 13.7263V13.7263C4.10112 13.9455 4.20873 14.1118 4.16971 14.1322C4.11704 14.1598 3.65365 13.7079 3.33891 13.1385C3.15196 12.8003 2.99499 12.4265 2.86791 12.1239C2.73009 11.7957 2.62743 11.5513 2.55983 11.5266C2.32497 11.4412 2.32497 11.92 2.41917 12.6112C2.43145 12.7014 2.44975 12.7959 2.47229 12.8922C3.38579 15.8479 6.192 18 9.51212 18C13.5733 18 16.8654 14.7801 16.8654 10.8082C16.8654 7.02773 13.8832 3.92861 10.0941 3.63846C10.0988 3.46037 10.1918 3.10721 10.1918 3.10721C10.1918 3.10721 10.8607 1.48877 10.8961 1.14293C10.8984 1.11997 10.9012 1.09503 10.9042 1.06847C10.9458 0.694789 11.0233 0 10.4256 0C10.1064 0 9.95797 0.237468 9.7882 0.509059V0.509062C9.72302 0.613325 9.65467 0.722619 9.57234 0.825434C8.97932 1.56599 7.98215 2.49078 7.41673 2.98347C6.22163 4.02483 5.0491 4.88067 4.36524 5.37982L4.36521 5.37986C4.05418 5.60686 3.84426 5.76011 3.7793 5.82342C3.28971 6.3007 1.53428 9.46709 1.53428 9.46709C1.53428 9.46709 0.966597 10.483 1.16838 10.689C1.37016 10.895 1.85675 10.8478 1.85675 10.8478C1.85675 10.8478 8.39373 9.34815 8.97897 9.22989C9.13654 9.19804 9.24778 9.17965 9.33317 9.16555C9.56503 9.12727 9.60665 9.12037 9.86842 8.96066ZM5.24654 7.0335C4.89565 7.36703 4.31371 8.16314 4.31371 8.16314C4.31371 8.16314 5.39525 8.22976 5.9909 7.66357C6.58659 7.09734 6.45011 6.13241 6.45011 6.13241C6.45011 6.13241 5.5974 6.69997 5.24654 7.0335Z" fill="currentColor"/>
</svg>
