<svg width="18" height="18" viewBox="0 0 18 18" fill="currentColor" xmlns="http://www.w3.org/2000/svg">
<g clip-path="url(#clip0_4280_7680)">
<path fill-rule="evenodd" clip-rule="evenodd" d="M3.61146 14.2727L6.49856 13.4355L8.9922 17.995C8.99547 18.0009 9.00394 18.0009 9.00717 17.995L11.5008 13.4355L14.3879 14.2727C14.3944 14.2745 14.4004 14.2685 14.3985 14.262L13.5612 11.4321L17.9949 9.00717C18.0009 9.00394 18.0009 8.99547 17.995 8.99223L13.5247 6.54732L14.3985 3.59385C14.4004 3.58738 14.3944 3.58137 14.3879 3.58323L11.4331 4.44002L9.00717 0.0044363C9.00394 -0.00147866 8.99547 -0.00147882 8.99223 0.00443616L6.56631 4.44002L3.61146 3.58323C3.60499 3.58137 3.59898 3.58738 3.60091 3.59385L4.47472 6.54732L0.0044363 8.99223C-0.00147866 8.99547 -0.00147882 9.00394 0.00443616 9.00717L4.43816 11.4321L3.60091 14.262C3.59898 14.2685 3.60499 14.2745 3.61146 14.2727ZM5.85183 9.0308L7.89718 10.1494L9.01582 12.1948C9.01906 12.2007 9.02756 12.2007 9.0308 12.1948L10.1494 10.1494L12.1948 9.0308C12.2007 9.02756 12.2007 9.01906 12.1948 9.01582L10.1494 7.89718L9.0308 5.85186C9.02756 5.84592 9.01906 5.84592 9.01582 5.85186L7.89718 7.89718L5.85183 9.01582C5.84592 9.01906 5.84592 9.02756 5.85183 9.0308Z" fill="currentColor"/>
</g>
<defs>
<clipPath id="clip0_4280_7680">
<rect width="18" height="18" fill="white"/>
</clipPath>
</defs>
</svg>
