<svg width="18" height="18" viewBox="0 0 18 18" fill="currentColor" xmlns="http://www.w3.org/2000/svg">
<path fill-rule="evenodd" clip-rule="evenodd" d="M3.10196 1.49645C3.3198 0.636377 4.09897 0 5.02675 0C5.72266 0 6.33498 0.358056 6.6895 0.9H7.27003C7.6307 0.529861 8.13459 0.3 8.69221 0.3C9.50973 0.3 10.2119 0.794116 10.5163 1.5H11.0023C11.3068 1.30987 11.6667 1.2 12.0522 1.2C12.8698 1.2 13.5719 1.69412 13.8762 2.4H15.1979C15.2092 2.4 15.2198 2.40304 15.2289 2.40835C15.2893 2.40282 15.3504 2.4 15.4122 2.4C16.5087 2.4 17.3976 3.28892 17.3976 4.38546V10.339L17.3977 10.35L17.3976 10.361V10.4468C17.3976 10.4831 17.3966 10.5193 17.3947 10.5553C17.2752 14.6854 13.5615 18 8.99764 18C4.35846 18 0.597656 14.575 0.597656 10.35C0.597656 8.31062 1.47392 6.45761 2.90227 5.08623C2.89871 7.07442 2.93229 9.12987 3.08709 9.09461C3.5016 9.00011 3.17774 2.84201 3.10196 1.49645Z" fill="currentColor"/>
</svg>
