<svg width="18" height="18" viewBox="0 0 18 18" fill="currentColor" xmlns="http://www.w3.org/2000/svg">
<path fill-rule="evenodd" clip-rule="evenodd" d="M12.3841 13.9006C12.6065 13.0874 12.1748 11.4156 12.1748 11.4156C12.1748 11.4156 11.8617 12.7775 11.3724 13.2809C10.9551 13.7102 10.4437 14.008 9.71036 14.0863C10.31 13.7951 10.7223 13.1878 10.7223 12.4859C10.7223 11.5006 9.90977 10.7019 8.90747 10.7019C7.90516 10.7019 7.0926 11.5006 7.0926 12.4859C7.0926 12.755 7.15324 13.0102 7.26177 13.239C6.63486 12.7396 6.53629 11.9389 6.53629 11.9389C6.53629 11.9389 5.83625 14.8452 7.76514 16.2124C9.69398 17.5795 13.4725 16.4044 13.4725 16.4044C13.4725 16.4044 8.06519 20.2091 4.0583 16.0682C0.606691 12.501 3.15743 7.80479 3.15743 7.80479C3.15743 7.80479 3.04727 8.24045 3.04727 8.74617C3.04727 9.25189 3.32146 9.63668 3.32146 9.63668C3.32146 9.63668 4.13937 7.91265 4.77591 7.21153C5.37835 6.54799 6.13354 6.00982 6.78582 5.54498C7.28793 5.18716 7.72907 4.8728 7.99253 4.57815C9.44367 2.95554 8.5539 0 8.5539 0C8.5539 0 10.1897 1.44211 10.6464 3.30461C10.8205 4.01456 10.7085 4.82235 10.6084 5.5447C10.4458 6.71738 10.3144 7.66494 11.4888 7.60345C13.3866 7.50407 11.7375 4.57815 11.7375 4.57815C11.7375 4.57815 16.0424 6.84081 15.7208 10.7981C15.3992 14.7553 11.0153 15.655 11.0153 15.655C11.0153 15.655 12.1616 14.7138 12.3841 13.9006Z" fill="currentColor"/>
</svg>
