<svg width="18" height="18" viewBox="0 0 18 18" fill="currentColor" xmlns="http://www.w3.org/2000/svg">
<path fill-rule="evenodd" clip-rule="evenodd" d="M6.28284 16.7953C8.91967 16.7953 11.1771 15.3298 12.1091 13.2524C12.1205 13.227 8.36743 14.2277 8.48711 13.874C8.54054 13.716 10.8412 12.8756 12.5173 11.8953C13.4807 11.3318 13.9243 10.1391 13.9243 10.1391C13.9243 10.1391 12.3013 10.9271 11.4808 11.127C9.8273 11.5299 8.37179 11.4865 8.37179 11.4445C8.37179 11.3537 10.7886 10.8945 14.1477 8.84756C15.7277 7.88474 16.1569 6.22628 16.1569 6.22628C16.1569 6.22628 14.4198 7.261 13.3697 7.60261C10.8793 8.41271 8.60678 8.65684 8.60678 8.54722C8.60678 8.31252 10.6067 7.76257 12.7271 6.73513C13.8296 6.20093 14.7844 5.50301 15.8909 4.72686C17.7014 3.45698 18 1.19531 18 1.19531C18 1.19531 16.2143 2.34703 15.3429 2.72951C11.7471 4.30773 8.57211 5.13559 6.28284 5.31482C2.82713 5.58538 0 7.9965 0 11.127C0 14.2575 2.81292 16.7953 6.28284 16.7953Z" fill="currentColor"/>
</svg>
