<svg width="18" height="18" viewBox="0 0 18 18" fill="currentColor" xmlns="http://www.w3.org/2000/svg">
<path fill-rule="evenodd" clip-rule="evenodd" d="M12.971 17.9377C11.3473 18.0208 9.48853 18.0208 8.85684 17.9377C3.92941 17.2894 0 13.6868 0 8.81719C0 3.94759 4.02943 0 9 0C13.9706 0 18 3.94759 18 8.81719C18 11.082 17.1284 13.1473 15.6959 14.7089C15.3069 15.1329 15.8406 15.4304 16.3829 15.7326C16.9147 16.029 17.4548 16.3299 17.1409 16.7594C16.7951 17.2326 14.92 17.8379 12.971 17.9377ZM7.73438 7.71504C7.73438 8.47589 7.10476 9.09271 6.32812 9.09271C5.55149 9.09271 4.92188 8.47589 4.92188 7.71504C4.92188 7.20475 5.20506 6.75928 5.62584 6.52117C5.65007 7.1846 6.19555 7.715 6.86493 7.715H7.73438V7.71504ZM12.0929 6.52117C12.0687 7.1846 11.5232 7.715 10.8538 7.715H9.98438V7.71504C9.98438 8.47589 10.614 9.09271 11.3906 9.09271C12.1673 9.09271 12.7969 8.47589 12.7969 7.71504C12.7969 7.20475 12.5137 6.75928 12.0929 6.52117Z" fill="currentColor"/>
</svg>
