<svg width="18" height="18" viewBox="0 0 18 18" fill="currentColor" xmlns="http://www.w3.org/2000/svg">
<path fill-rule="evenodd" clip-rule="evenodd" d="M3.42472 15.4916C3.36293 15.4335 3.30183 15.3742 3.24144 15.3138C0.053309 12.1257 0.0533096 6.95672 3.24144 3.76861C6.42955 0.58047 16.5882 0.367188 16.5882 0.367188C16.5882 0.367188 17.9748 12.1257 14.7867 15.3138C11.9552 18.1453 7.5613 18.4621 4.38026 16.2641L6.94343 13.1187L11.0409 12.234L7.69616 11.8997L9.82178 9.73537L12.2414 9.20531L10.3281 8.6387L12.2414 5.1872L9.51993 8.23975L8.469 6.75675L8.83895 9.20531L6.94343 11.3422L6.06477 8.63867V12.234L3.42472 15.4916Z" fill="currentColor"/>
</svg>
