<svg width="18" height="18" viewBox="0 0 18 18" fill="currentColor" xmlns="http://www.w3.org/2000/svg">
<g clip-path="url(#clip0_4280_7653)">
<path fill-rule="evenodd" clip-rule="evenodd" d="M3.96436 15.4601C3.95947 15.4601 3.95606 15.4553 3.95768 15.4507L8.55313 2.46565C8.55415 2.46283 8.55682 2.46094 8.55981 2.46094H13.4656C13.4686 2.46094 13.4713 2.46284 13.4723 2.46568L17.9995 15.4507C18.0011 15.4553 17.9977 15.4601 17.9929 15.4601H4.10245H3.96436ZM0.00707716 15.5109C0.00214145 15.5109 -0.00127565 15.506 0.000455651 15.5014L3.42255 6.36525C3.42359 6.36247 3.42623 6.36064 3.42918 6.36064H6.40259C6.40751 6.36064 6.41092 6.36553 6.40923 6.37014L3.10016 15.5063C3.09915 15.509 3.09649 15.5109 3.09351 15.5109H0.00707716Z" fill="currentColor"/>
</g>
<defs>
<clipPath id="clip0_4280_7653">
<rect width="18" height="18" fill="white"/>
</clipPath>
</defs>
</svg>
