<svg width="18" height="18" viewBox="0 0 18 18" fill="currentColor" xmlns="http://www.w3.org/2000/svg">
<path fill-rule="evenodd" clip-rule="evenodd" d="M13.5107 1.37256L13.5661 6.23643L9.3238 8.27292L9.27148 3.6805L13.5107 1.37256Z" fill="currentColor"/>
<path fill-rule="evenodd" clip-rule="evenodd" d="M17.7632 9.03658L13.5637 11.4387L9.36157 9.03279L13.5615 6.82666L17.7632 9.03658Z" fill="currentColor"/>
<path fill-rule="evenodd" clip-rule="evenodd" d="M8.61458 9.03658L4.41499 11.4387L0.212891 9.03279L4.41281 6.82666L8.61458 9.03658Z" fill="currentColor"/>
<path fill-rule="evenodd" clip-rule="evenodd" d="M4.36792 1.35254L8.7268 3.51133L8.61536 8.21581L4.49976 6.17752L4.36792 1.35254Z" fill="currentColor"/>
<path fill-rule="evenodd" clip-rule="evenodd" d="M13.6294 16.6475L9.27051 14.4887L9.38195 9.78418L13.4976 11.8225L13.6294 16.6475Z" fill="currentColor"/>
<path fill-rule="evenodd" clip-rule="evenodd" d="M4.51854 16.6909L4.46313 11.827L8.70547 9.79053L8.75779 14.3829L4.51854 16.6909Z" fill="currentColor"/>
</svg>
