<svg width="18" height="18" viewBox="0 0 18 18" fill="currentColor" xmlns="http://www.w3.org/2000/svg">
<path fill-rule="evenodd" clip-rule="evenodd" d="M15.0406 13.8322C16.8583 12.3788 18 10.2788 18 7.94355C18 3.55644 13.9706 0 9 0C4.02943 0 0 3.55644 0 7.94355C0 10.1945 1.06079 12.2269 2.76523 13.6723C2.66193 14.029 2.60526 14.4169 2.60526 14.8226C2.60526 16.5774 3.66564 18 4.9737 18C5.82363 18 6.56902 17.3994 6.98685 16.4972C7.40468 17.3994 8.15006 18 9 18C9.77477 18 10.4626 17.5009 10.8947 16.7293C11.3269 17.5009 12.0147 18 12.7895 18C14.0975 18 15.1579 16.5774 15.1579 14.8226C15.1579 14.4768 15.1167 14.1439 15.0406 13.8322ZM14.2105 8.10109C14.2105 10.3284 11.8247 12.134 8.88159 12.134C5.93849 12.134 3.55264 10.3284 3.55264 8.10109C3.55264 5.8738 5.93849 4.06821 8.88159 4.06821C11.8247 4.06821 14.2105 5.8738 14.2105 8.10109Z" fill="currentColor"/>
</svg>
