<svg width="18" height="18" viewBox="0 0 18 18" fill="currentColor" xmlns="http://www.w3.org/2000/svg">
<g clip-path="url(#clip0_4280_7659)">
<path fill-rule="evenodd" clip-rule="evenodd" d="M16.0286 14.9479C16.0286 14.9479 13.7589 16.7682 9.24232 16.0149C5.81565 15.4434 3.98802 11.666 3.98802 9.63558C3.98802 4.82164 7.55096 3.72614 9.95976 3.72614C12.3685 3.72614 13.9399 6.07457 13.9399 7.89285C13.9399 9.71113 12.6539 11.3015 10.6525 11.3015C8.65124 11.3015 8.05851 9.89651 8.05851 8.60477C8.05851 7.31306 9.1036 6.85796 10.0567 6.85796C11.0098 6.85796 11.3362 7.67169 11.3362 8.37105C11.3362 9.07045 10.7936 9.3209 10.341 9.3209C9.88836 9.3209 9.8436 9.09256 9.67039 8.85258C9.49714 8.61264 9.89131 7.70435 9.24232 7.70435C8.59334 7.70435 8.47237 8.74852 8.47237 8.74852C8.47237 8.74852 8.70897 10.7641 10.6525 10.7294C12.5962 10.6946 13.5182 9.19198 13.2502 7.70435C12.9823 6.21668 11.5385 4.63588 9.00467 4.95531C6.47082 5.27473 5.43628 7.83495 5.89229 10.5709C6.3483 13.307 9.62602 14.8922 12.2031 14.3219C14.7803 13.7516 17.3471 11.8858 17.3471 7.15545C17.3471 2.42504 13.2502 -0.418366 8.36511 0.0502432C3.47997 0.51885 0.447503 4.78975 0.641608 9.92133C0.835713 15.0529 5.70498 17.8477 9.82244 17.9918C13.9399 18.1358 16.4641 15.7523 16.4641 15.7523C16.4641 15.7523 17.0317 15.2461 16.8092 14.8508C16.5866 14.4555 16.0286 14.9479 16.0286 14.9479Z" fill="currentColor"/>
</g>
<defs>
<clipPath id="clip0_4280_7659">
<rect width="18" height="18" fill="white"/>
</clipPath>
</defs>
</svg>
