<svg width="18" height="18" viewBox="0 0 18 18" fill="currentColor" xmlns="http://www.w3.org/2000/svg">
<g clip-path="url(#clip0_4280_7665)">
<path fill-rule="evenodd" clip-rule="evenodd" d="M13.8916 8.60474C13.8906 8.60333 13.8901 8.60157 13.8904 8.59985L15.0388 1.90377C15.0393 1.90069 15.042 1.89844 15.0451 1.89844H15.4085C15.4113 1.89844 15.4138 1.90026 15.4146 1.90293L18.0018 10.0944C18.0026 10.097 18.0017 10.0998 17.9996 10.1014L16.0921 11.5908C16.0892 11.593 16.0851 11.5924 16.083 11.5895L13.8916 8.60474ZM-0.0351562 13.0437C-0.0351562 13.0465 -0.0333705 13.049 -0.0307304 13.0499L3.90146 14.3356C3.90336 14.3362 3.90547 14.3359 3.90712 14.3347L12.6965 8.26678C12.698 8.26576 12.699 8.26418 12.6992 8.26242L13.6418 1.93811C13.6423 1.93423 13.6393 1.93074 13.6354 1.93074H5.85021C5.84828 1.93074 5.84648 1.93159 5.84525 1.93306L-0.0336788 9.0251C-0.0346338 9.02626 -0.0351562 9.0277 -0.0351562 9.02921V13.0437ZM5.54003 14.6631L9.83587 16.0703C9.83781 16.071 9.83995 16.0707 9.84161 16.0695L14.9561 12.4008C14.9589 12.3988 14.9597 12.3949 14.9577 12.392L13.0404 9.53891C13.0384 9.53592 13.0344 9.53515 13.0315 9.53719L5.54003 14.6631Z" fill="currentColor"/>
</g>
<defs>
<clipPath id="clip0_4280_7665">
<rect width="18" height="18" fill="white"/>
</clipPath>
</defs>
</svg>
