<svg width="18" height="18" viewBox="0 0 18 18" fill="currentColor" xmlns="http://www.w3.org/2000/svg">
<path fill-rule="evenodd" clip-rule="evenodd" d="M0.00179686 8.94821C-0.000597818 8.94414 -0.00059902 8.93907 0.00179366 8.93496L4.52795 1.20179C4.5303 1.19778 4.53463 1.19531 4.53927 1.19531H13.5103C13.515 1.19531 13.5193 1.1978 13.5217 1.20185L17.9982 8.93503C18.0006 8.93907 18.0006 8.9441 17.9982 8.94814L13.5217 16.6726C13.5193 16.6767 13.515 16.6792 13.5103 16.6792H4.53927C4.53463 16.6792 4.5303 16.6767 4.52795 16.6727L0.00179686 8.94821ZM13.1701 8.93725C13.1701 11.2396 11.3037 13.106 9.00141 13.106C6.69909 13.106 4.83268 11.2396 4.83268 8.93725C4.83268 6.6349 6.69909 4.76852 9.00141 4.76852C11.3037 4.76852 13.1701 6.6349 13.1701 8.93725Z" fill="currentColor"/>
</svg>
