<svg width="18" height="18" viewBox="0 0 18 18" fill="currentColor" xmlns="http://www.w3.org/2000/svg">
<path fill-rule="evenodd" clip-rule="evenodd" d="M14.842 12.1822C14.842 15.3948 12.2278 17.9992 9.00302 17.9992C5.77825 17.9992 3.16406 15.3948 3.16406 12.1822C3.16406 9.05762 8.68718 0.476293 8.99009 0.00800894C8.99701 -0.00266971 9.00907 -0.00266962 9.01596 0.00800905C9.31887 0.476293 14.842 9.05762 14.842 12.1822ZM8.02969 16.1343C5.06672 15.486 5.57374 12.2038 5.57374 12.2038C5.57374 12.2038 6.38283 14.1851 8.34627 14.8269C10.3097 15.4687 12.6824 14.5274 12.6824 14.5274C12.6824 14.5274 10.9927 16.7826 8.02969 16.1343Z" fill="currentColor"/>
</svg>
