<?xml version="1.0" encoding="utf-8"?>
<!-- Generator: Adobe Illustrator 25.2.0, SVG Export Plug-In . SVG Version: 6.00 Build 0)  -->
<svg version="1.1"
	 id="SVGRoot" xmlns:cc="http://creativecommons.org/ns#" xmlns:dc="http://purl.org/dc/elements/1.1/" xmlns:inkscape="http://www.inkscape.org/namespaces/inkscape" xmlns:rdf="http://www.w3.org/1999/02/22-rdf-syntax-ns#" xmlns:sodipodi="http://sodipodi.sourceforge.net/DTD/sodipodi-0.dtd" xmlns:svg="http://www.w3.org/2000/svg"
	 xmlns="http://www.w3.org/2000/svg" xmlns:xlink="http://www.w3.org/1999/xlink" x="0px" y="0px" viewBox="0 0 24 24"
	 style="enable-background:new 0 0 24 24;" xml:space="preserve">
<style type="text/css">
	.st0{fill-rule:evenodd;clip-rule:evenodd;fill:#000017;}
	.st1{opacity:0.999;fill:url(#Line_1_);enable-background:new    ;}
	.st2{fill-rule:evenodd;clip-rule:evenodd;fill:#FFFFFF;}
</style>
<path class="st0" d="M20,24H4c-2.2,0-4-1.8-4-4V4c0-2.2,1.8-4,4-4h16c2.2,0,4,1.8,4,4v16C24,22.2,22.2,24,20,24z"/>
<sodipodi:namedview  bordercolor="#666666" borderopacity="1.0" id="base" inkscape:current-layer="layer1" inkscape:cx="2.7071659" inkscape:cy="10.634889" inkscape:document-rotation="0" inkscape:document-units="px" inkscape:pageopacity="0.0" inkscape:pageshadow="2" inkscape:snap-grids="true" inkscape:window-height="1017" inkscape:window-maximized="1" inkscape:window-width="1920" inkscape:window-x="1912" inkscape:window-y="-8" inkscape:zoom="16" pagecolor="#ffffff" showgrid="true">
	<inkscape:grid  id="grid904" type="xygrid"></inkscape:grid>
</sodipodi:namedview>
<g id="layer1" inkscape:groupmode="layer" inkscape:label="Calque 1">
	<linearGradient id="Line_1_" gradientUnits="userSpaceOnUse" x1="12" y1="5.5714" x2="12" y2="18.4286">
		<stop  offset="0" style="stop-color:#06C0EE"/>
		<stop  offset="1" style="stop-color:#1485A1"/>
	</linearGradient>
	<path id="Line" sodipodi:nodetypes="sccsccscsccscscsccscsccsccsccssssss" class="st1" d="M12,16.8c-2.8,0-4.3-1.6-4.8-4h2.5
		c0.2,1,1.3,1.6,2.3,1.6c1,0,2.1-0.7,2.3-1.6h2.5C16.3,15.2,14.8,16.8,12,16.8z M10.8,12.4c-0.1-0.1-0.1-0.3-0.1-0.4h0
		c0-0.1,0-0.2,0-0.2c0,0,0-0.1,0.1-0.2c0-0.1,0.4-0.8,1.1-0.8c0.8,0,1.1,0.7,1.2,0.8c0,0.1,0,0.1,0,0.1c0,0.1,0,0.2,0,0.3h0h0
		c0,0.1,0,0.3-0.1,0.4c-0.2,0.4-0.6,0.8-1.1,0.8C11.5,13.3,11,12.9,10.8,12.4z M12,7.2c2.8,0,4.3,1.6,4.8,4h-2.5
		C14.1,10.3,13,9.4,12,9.4c-1.2,0-2.2,0.9-2.3,1.8H7.2C7.7,8.8,9.2,7.2,12,7.2z M10.5,18.3c4.7,1,8.8-3.1,7.7-7.8
		c-0.5-2.4-2.4-4.2-4.8-4.8c-4.7-1-8.7,3.1-7.7,7.8C6.3,15.8,8.2,17.7,10.5,18.3z M12.4,6.7 M12,10"/>
	<path id="right" inkscape:label="right" sodipodi:nodetypes="cccccc" class="st2" d="M21.8,3.7c2.1,6,1.8,11.5,0,16.6 M21.8,20.3
		h-2.6c2.2-5.3,1.6-10.9,0-16.6h2.6"/>
	<path id="left" inkscape:label="left" sodipodi:nodetypes="cccccc" class="st2" d="M2.2,3.7c-2.1,6-1.8,11.5,0,16.6 M2.2,20.3h2.6
		C2.6,15,3.1,9.4,4.8,3.7H2.2"/>
</g>
</svg>
